<?xml version="1.0" encoding="iso-8859-1"?>
<!-- Generator: Adobe Illustrator 18.0.0, SVG Export Plug-In . SVG Version: 6.00 Build 0)  -->
<!DOCTYPE svg PUBLIC "-//W3C//DTD SVG 1.1//EN" "http://www.w3.org/Graphics/SVG/1.1/DTD/svg11.dtd">
<svg version="1.1" id="Capa_1" xmlns="http://www.w3.org/2000/svg" xmlns:xlink="http://www.w3.org/1999/xlink" x="0px" y="0px"
	 viewBox="0 0 116.642 116.642" style="enable-background:new 0 0 116.642 116.642;" xml:space="preserve">
<g>
	<path d="M106.842,48.518c-7.05-5.323-14.906-9.521-23.241-12.429c-0.534-0.187-0.946,0.247-1.034,0.724
		c-0.223-0.054-0.465,0.005-0.667,0.249c-1.128,1.361-2.573,2.397-3.666,3.793c-1.11,1.422-1.021,3.442-1.042,5.167
		C67.188,44.165,56.86,43.88,46.76,43.059c-13.158-1.069-26.325-2.058-39.521-2.537c-0.233-0.008-0.408,0.074-0.539,0.194
		c-0.287-0.059-0.598,0.036-0.785,0.377c-0.154,0.28-5.215,4.59-5.704,8.463c-0.713,5.667,0.526,27.388,1.582,27.982
		c0.37,0.208,29.495-1.839,43.576-3.637c1.341-0.171,3.154-0.331,5.233-0.479c0.719,0.004,1.436,0.007,2.16,0.041
		c0.257,0.013,0.45-0.08,0.584-0.22c8.775-0.534,20.26-0.888,22.537-1.027c0.088,1.693-0.075,3.664,0.682,5.218
		c0.756,1.544,2.186,2.304,3.605,3.1c0.333,0.185,1.213-0.085,1.393-0.117c0.232-0.041,33.848-17.778,33.898-17.814
		C119.813,59.633,111.035,51.683,106.842,48.518z M4.533,57.655c-0.102,0.117-0.204,0.234-0.305,0.352
		c0.033-0.65,0.074-1.299,0.124-1.948c0.099-0.182,0.206-0.356,0.31-0.537C4.623,56.234,4.586,56.945,4.533,57.655z M113.395,56.272
		c-0.087,0.035-0.166,0.084-0.239,0.142c-1.889-2.66-5.013-5.082-6.895-6.549c-0.226-0.176-0.453-0.354-0.679-0.533
		C108.469,51.298,111.656,53.781,113.395,56.272z M80.783,40.383c-0.187,1.791-0.497,3.608-0.285,5.372
		c-0.454-1.28-0.065-2.818-0.002-4.127c0.017-0.309-0.122-0.517-0.314-0.647C80.37,40.77,80.578,40.578,80.783,40.383z
		 M6.533,75.282c0.992-1.048,2.333-2.664,2.337-2.797c0.81-0.076,1.619-0.156,2.428-0.234c-0.41,0.31-2.354,1.962-3.522,2.988
		C7.361,75.253,6.948,75.268,6.533,75.282z M10.459,75.132c1.009-1.018,2.884-2.776,2.795-3.07c0.99-0.097,1.981-0.199,2.97-0.3
		c-0.949,1.025-1.838,2.106-2.672,3.229C12.519,75.044,11.488,75.089,10.459,75.132z M19.585,74.637
		c-1.301,0.091-2.601,0.175-3.901,0.246c1.145-1.399,2.776-3.231,2.795-3.352c1.024-0.106,2.048-0.214,3.072-0.32
		C20.822,72.309,20.3,73.525,19.585,74.637z M21.566,74.495c0.803-1.373,1.932-3.338,1.935-3.487
		c1.386-0.145,2.771-0.29,4.155-0.432c-0.896,1.068-1.637,2.26-2.121,3.577C24.216,74.28,22.892,74.393,21.566,74.495z
		 M30.969,73.541c-1.19,0.152-2.385,0.292-3.584,0.42c0.609-1.281,1.492-2.415,2.5-3.414c0.067-0.067,0.104-0.143,0.145-0.218
		c0.77-0.078,1.543-0.156,2.312-0.232C32.052,70.946,31.302,72.629,30.969,73.541z M32.791,73.307
		c0.548-1.078,0.913-2.244,1.328-3.38c0.001-0.003,0-0.005,0.002-0.009c1.419-0.138,2.838-0.275,4.259-0.407
		c-0.577,1.174-1.462,2.177-2.083,3.334C35.134,72.994,33.965,73.149,32.791,73.307z M41.92,72.199
		c-1.218,0.117-2.435,0.253-3.655,0.4c0.642-0.99,1.405-1.911,1.855-3.024c0.033-0.083,0.034-0.154,0.042-0.229
		c1.245-0.111,2.49-0.216,3.735-0.318c-0.302,0.485-0.585,0.982-0.878,1.476C42.667,71.096,42.181,71.552,41.92,72.199z
		 M47.74,71.813c-1.295,0.041-2.583,0.119-3.869,0.221c0.229-0.305,0.484-0.603,0.665-0.904c0.346-0.58,0.66-1.172,1.043-1.729
		c0.125-0.179,0.16-0.357,0.137-0.522c1.171-0.092,2.341-0.177,3.512-0.259C48.794,69.713,48.327,70.789,47.74,71.813z
		 M52.658,71.349c-1.012,0.127-2.025,0.257-3.038,0.386c0.508-1.007,0.936-2.051,1.343-3.102c0.019-0.048,0.013-0.087,0.021-0.13
		c1.166-0.078,2.334-0.147,3.5-0.212C53.917,69.332,53.094,70.221,52.658,71.349z M60.5,68.059c0.002,0.471-0.285,0.853-0.54,1.229
		c-0.291,0.432-0.564,0.849-0.779,1.319c-1.547,0.156-3.092,0.327-4.637,0.512c0.546-0.988,1.321-1.855,1.763-2.912
		c0-0.002,0-0.004,0.001-0.006c1.398-0.068,2.798-0.123,4.197-0.173C60.505,68.04,60.499,68.048,60.5,68.059z M65.074,70.031
		c-0.012,0.028-0.018,0.06-0.024,0.09c-0.775,0.05-1.552,0.105-2.325,0.163c-0.546,0.043-1.092,0.103-1.637,0.149
		c0.475-0.728,1.041-1.377,1.033-2.343c0-0.045-0.018-0.076-0.023-0.115c1.384-0.041,2.768-0.063,4.153-0.08
		C65.939,68.642,65.403,69.287,65.074,70.031z M70.897,70.004c-1.339-0.047-2.681-0.036-4.021,0.021
		c0.341-0.604,0.762-1.155,1.002-1.823c0.04-0.111,0.048-0.214,0.045-0.313c1.249-0.004,2.495,0.004,3.744,0.022
		c-0.267,0.534-0.58,1.042-0.789,1.609C70.818,69.684,70.841,69.849,70.897,70.004z M75.869,70.108
		c-1.129,0.103-2.301,0.035-3.484-0.037c0.016-0.031,0.038-0.054,0.049-0.086c0.244-0.66,0.644-1.254,0.93-1.897
		c0.021-0.047,0.032-0.095,0.04-0.144c1.053,0.023,3.653,0.099,4.707,0.138C77.819,68.484,75.901,70.069,75.869,70.108z
		 M113.6,61.715c-0.301,0.303-29.233,15.478-30.829,15.46c-0.11,0-0.202,0.024-0.292,0.056c-0.001-0.006,0.002-0.015,0-0.022
		c-0.634-2.997-0.479-7.033-0.362-10.07c0.049-0.434-1.335-0.516-1.483-0.524c-24.205-1.526-48.224,2.074-72.268,4.3
		c0.043-0.093,0.073-0.195,0.076-0.316c0.316-9.457,0.441-18.916,0.383-28.379c12.127,0.478,24.229,1.362,36.326,2.336
		c12.332,0.993,25.631,1.293,37.668,4.363c0.54,0.137,0.955-9.527,1.089-10.331C89.758,39.685,118.043,57.25,113.6,61.715z"/>
</g>
<g>
</g>
<g>
</g>
<g>
</g>
<g>
</g>
<g>
</g>
<g>
</g>
<g>
</g>
<g>
</g>
<g>
</g>
<g>
</g>
<g>
</g>
<g>
</g>
<g>
</g>
<g>
</g>
<g>
</g>
</svg>
