<?xml version="1.0" encoding="iso-8859-1"?>
<!-- Generator: Adobe Illustrator 19.0.0, SVG Export Plug-In . SVG Version: 6.00 Build 0)  -->
<svg version="1.1" id="Layer_1" xmlns="http://www.w3.org/2000/svg" xmlns:xlink="http://www.w3.org/1999/xlink" x="0px" y="0px"
	 viewBox="0 0 218.207 218.207" style="enable-background:new 0 0 218.207 218.207;" xml:space="preserve">
<g>
	<g>
		<g>
			<path d="M41.542,85.496c2.028,0.727,4.258-0.327,4.989-2.348l11.69-32.493h46.987v116.897h-11.69v7.793h31.172v-7.793H113V50.655
				h46.987l11.69,32.493c0.575,1.587,2.07,2.576,3.668,2.576c0.438,0,0.883-0.072,1.321-0.228c2.024-0.731,3.075-2.964,2.348-4.989
				l-12.618-35.069c-0.559-1.545-2.024-2.576-3.668-2.576H55.48c-1.644,0-3.109,1.031-3.668,2.576L39.194,80.507
				C38.467,82.532,39.517,84.765,41.542,85.496z"/>
			<path d="M202.621,187.034c-2.852,0-5.491,0.825-7.793,2.167V29.005c2.302,1.342,4.941,2.167,7.793,2.167
				c8.596,0,15.586-6.99,15.586-15.586S211.217,0,202.621,0c-8.596,0-15.586,6.99-15.586,15.586c0,2.852,0.825,5.491,2.167,7.793
				H29.005c1.342-2.302,2.167-4.941,2.167-7.793C31.172,6.99,24.182,0,15.586,0S0,6.99,0,15.586s6.99,15.586,15.586,15.586
				c2.852,0,5.491-0.825,7.793-2.167v160.196c-2.302-1.342-4.941-2.167-7.793-2.167C6.99,187.034,0,194.025,0,202.621
				s6.99,15.586,15.586,15.586s15.586-6.99,15.586-15.586c0-2.852-0.825-5.491-2.167-7.793h160.197
				c-1.342,2.302-2.167,4.941-2.167,7.793c0,8.596,6.99,15.586,15.586,15.586c8.596,0,15.586-6.99,15.586-15.586
				S211.217,187.034,202.621,187.034z M202.621,7.793c4.296,0,7.793,3.497,7.793,7.793s-3.497,7.793-7.793,7.793
				c-4.296,0-7.793-3.497-7.793-7.793S198.325,7.793,202.621,7.793z M15.586,210.414c-4.296,0-7.793-3.497-7.793-7.793
				c0-4.296,3.497-7.793,7.793-7.793s7.793,3.497,7.793,7.793C23.379,206.917,19.882,210.414,15.586,210.414z M15.586,23.379
				c-4.296,0-7.793-3.497-7.793-7.793s3.497-7.793,7.793-7.793s7.793,3.497,7.793,7.793S19.882,23.379,15.586,23.379z
				 M187.034,187.034H31.172V31.172h155.862V187.034z M202.621,210.414c-4.296,0-7.793-3.497-7.793-7.793
				c0-4.296,3.497-7.793,7.793-7.793c4.296,0,7.793,3.497,7.793,7.793C210.414,206.917,206.917,210.414,202.621,210.414z"/>
		</g>
	</g>
</g>
<g>
</g>
<g>
</g>
<g>
</g>
<g>
</g>
<g>
</g>
<g>
</g>
<g>
</g>
<g>
</g>
<g>
</g>
<g>
</g>
<g>
</g>
<g>
</g>
<g>
</g>
<g>
</g>
<g>
</g>
</svg>
